<?xml version="1.0"?>
<svg xmlns="http://www.w3.org/2000/svg" xmlns:xlink="http://www.w3.org/1999/xlink" xmlns:svgjs="http://svgjs.com/svgjs" version="1.1" width="512" height="512" x="0" y="0" viewBox="0 0 512.002 512.002" style="enable-background:new 0 0 512 512" xml:space="preserve" class=""><g>
<g xmlns="http://www.w3.org/2000/svg">
	<g>
		<path d="M449.063,424.971c37.339-42.527,59.26-95.464,62.939-151.943h-45.456v-34.057H512    c-3.678-56.479-25.6-109.416-62.939-151.954l-30.255,30.266l-24.09-24.09l30.255-30.255C382.445,25.6,329.508,3.678,273.029,0    v42.788h-34.058V0C182.492,3.678,129.555,25.6,87.029,62.94l32.139,32.139l-24.09,24.09l-32.139-32.15    C25.6,129.555,3.678,182.492,0,238.971h45.456v34.058H0c3.678,56.479,25.6,109.416,62.939,151.943l32.139-32.139l24.09,24.09    l-32.139,32.139c42.527,37.327,95.464,59.26,151.943,62.939v-45.456h34.058V512c56.479-3.678,109.416-25.6,151.954-62.939    l-32.15-32.139l24.09-24.09L449.063,424.971z M364.144,385.602l-124.64-122.426l-0.534-132.007l34.058-0.136l0.477,117.794    l114.502,112.481L364.144,385.602z" fill="#004752" data-original="#000000" style="" class=""/>
	</g>
</g>
<g xmlns="http://www.w3.org/2000/svg">
</g>
<g xmlns="http://www.w3.org/2000/svg">
</g>
<g xmlns="http://www.w3.org/2000/svg">
</g>
<g xmlns="http://www.w3.org/2000/svg">
</g>
<g xmlns="http://www.w3.org/2000/svg">
</g>
<g xmlns="http://www.w3.org/2000/svg">
</g>
<g xmlns="http://www.w3.org/2000/svg">
</g>
<g xmlns="http://www.w3.org/2000/svg">
</g>
<g xmlns="http://www.w3.org/2000/svg">
</g>
<g xmlns="http://www.w3.org/2000/svg">
</g>
<g xmlns="http://www.w3.org/2000/svg">
</g>
<g xmlns="http://www.w3.org/2000/svg">
</g>
<g xmlns="http://www.w3.org/2000/svg">
</g>
<g xmlns="http://www.w3.org/2000/svg">
</g>
<g xmlns="http://www.w3.org/2000/svg">
</g>
</g></svg>
