<svg width="78" height="73" viewBox="0 0 78 73" fill="none" xmlns="http://www.w3.org/2000/svg">
<path fill-rule="evenodd" clip-rule="evenodd" d="M31.2349 39.0261C28.5241 37.0321 24.7952 35.8001 20.6787 35.8021C12.4074 35.8041 5.70185 40.7791 5.68066 46.9201V48.9811H20.22C22.3683 44.8241 26.2306 41.2911 31.2338 39.0261H31.2349ZM13.6627 26.8771L12.9826 27.0571C13.4191 30.7071 16.6977 33.5461 20.6829 33.5461C24.9647 33.5461 28.4361 30.2691 28.4361 26.2261C28.4361 25.1361 28.1766 24.1041 27.7232 23.1741L27.0452 23.3521L13.6627 26.8771Z" fill="#FFF4C5"/>
<path fill-rule="evenodd" clip-rule="evenodd" d="M40.1172 39.3201C41.5293 40.7531 43.006 43.0561 44.738 46.4501C44.9679 46.9001 45.1935 47.3491 45.4085 47.7911C45.5992 47.3811 45.7984 46.9661 46.0007 46.5501C47.6713 43.1221 49.0706 40.8251 50.416 39.4041C48.6819 39.1041 46.8778 38.9421 45.0198 38.9421H45.0092C43.3323 38.9421 41.6956 39.0731 40.1172 39.3201Z" fill="#FFDC4F"/>
<path fill-rule="evenodd" clip-rule="evenodd" d="M54.4045 40.3731C54.3219 40.3471 54.2361 40.3331 54.1492 40.3331C51.181 40.3321 45.468 55.1071 45.468 55.1071C45.468 55.1071 39.468 40.2241 36.2625 40.2241C36.1703 40.2241 36.0803 40.2371 35.9923 40.2621C27.3334 42.7651 21.3058 49.1881 21.2814 56.5351H21.2793V59.7951H68.7521V56.5351C68.7299 49.2881 62.8283 43.0711 54.4045 40.3731Z" fill="white"/>
<mask id="mask0" mask-type="alpha" maskUnits="userSpaceOnUse" x="10" y="10" width="62" height="53">
<path d="M10.2041 10.1111H71.7183V62.5951H10.2041V10.1111Z" fill="white"/>
</mask>
<g mask="url(#mask0)">
<path fill-rule="evenodd" clip-rule="evenodd" d="M68.7534 59.7951H21.2784V56.5351C21.3038 49.1891 27.3325 42.7651 35.9915 40.2621C36.0794 40.2371 36.1694 40.2241 36.2616 40.2241C39.4671 40.2241 45.4672 55.1081 45.4672 55.1081C45.4672 55.1081 51.1812 40.3321 54.1484 40.3341C54.2363 40.3341 54.321 40.3481 54.4026 40.3741C62.8275 43.0711 68.729 49.2891 68.7502 56.5351L68.7512 59.7951H68.7534ZM50.4164 39.4051C49.071 40.8251 47.6716 43.1221 46.0011 46.5501C45.7987 46.9671 45.6006 47.3821 45.4089 47.7911C45.1928 47.3491 44.9693 46.9001 44.7394 46.4511C43.0053 43.0571 41.5296 40.7541 40.1175 39.3211C41.6959 39.0741 43.3316 38.9421 45.0095 38.9421H45.0201C46.8771 38.9421 48.6822 39.1051 50.4164 39.4051ZM32.7478 24.4931C32.7478 18.0971 38.2404 12.9111 45.0159 12.9111C51.7914 12.9111 57.285 18.0971 57.285 24.4931C57.285 30.8891 51.7914 36.0731 45.0159 36.0731C38.2404 36.0731 32.7478 30.8891 32.7478 24.4931ZM13.0654 24.8551C13.5983 22.2241 15.6491 19.9681 18.5644 19.1861C19.272 18.9961 19.986 18.9061 20.6873 18.9061C22.8981 18.9061 24.9924 19.8061 26.448 21.3301L13.0654 24.8551ZM71.4621 53.7351C71.4515 53.6771 71.4345 53.6201 71.4229 53.5631C71.3635 53.2541 71.2958 52.9481 71.2174 52.6431C71.1718 52.4651 71.122 52.2881 71.0691 52.1101C71.0193 51.9361 70.9642 51.7641 70.907 51.5921C68.8995 45.4301 63.2374 40.2451 55.3571 37.7221C55.2734 37.6951 55.1865 37.6821 55.0997 37.6621C54.2702 37.4021 53.4206 37.1721 52.552 36.9741C57.1431 34.4941 60.2512 29.8341 60.2512 24.4931C60.2512 16.5631 53.4164 10.1111 45.0159 10.1111C37.537 10.1111 31.3113 15.2311 30.0348 21.9511L28.1005 19.9241C26.2085 17.9421 23.5062 16.8051 20.6873 16.8051C19.7668 16.8051 18.8483 16.9271 17.9574 17.1651C14.3059 18.1451 11.594 20.9391 10.8811 24.4601L10.2031 27.7881L12.9828 27.0571L13.6629 26.8771L27.0454 23.3521L27.7234 23.1751L29.93 22.5931C29.8431 23.2161 29.7817 23.8471 29.7817 24.4931C29.7817 29.8341 32.8908 34.4961 37.483 36.9761C36.7468 37.1421 36.0222 37.3311 35.3145 37.5441C35.251 37.5591 35.1874 37.5671 35.1239 37.5841C33.7616 37.9781 32.4681 38.4691 31.2361 39.0271C26.2318 41.2921 22.3695 44.8241 20.2212 48.9811C19.7869 49.8211 19.4246 50.6821 19.1354 51.5661C19.0782 51.7411 19.022 51.9161 18.9701 52.0921C18.9193 52.2661 18.8695 52.4391 18.825 52.6151C18.7403 52.9461 18.6629 53.2791 18.5994 53.6161C18.592 53.6561 18.5782 53.6951 18.5718 53.7361H18.3144V62.5961H71.7184V53.7361L71.4621 53.7351Z" fill="#004752"/>
</g>
<path fill-rule="evenodd" clip-rule="evenodd" d="M57.2841 24.4921C57.2841 18.0961 51.7914 12.9121 45.017 12.9121C38.2405 12.9121 32.7479 18.0961 32.7479 24.4921C32.7479 30.8881 38.2405 36.0731 45.017 36.0731C51.7914 36.0731 57.2841 30.8881 57.2841 24.4931V24.4921ZM18.5645 19.1851C15.6492 19.9671 13.5984 22.2231 13.0645 24.8551L26.448 21.3301C24.9925 19.8051 22.8993 18.9051 20.6874 18.9051C19.9851 18.9051 19.2732 18.9951 18.5645 19.1851Z" fill="#FFDC4F"/>
</svg>
