<svg width="68" height="65" viewBox="0 0 68 65" fill="none" xmlns="http://www.w3.org/2000/svg">
<mask id="mask0" mask-type="alpha" maskUnits="userSpaceOnUse" x="40" y="27" width="25" height="16">
<path d="M40.1902 31.6248L61.9978 27.9531L64.2821 38.7824L42.4746 42.4541L40.1902 31.6248Z" fill="white"/>
</mask>
<g mask="url(#mask0)">
<path fill-rule="evenodd" clip-rule="evenodd" d="M61.9925 27.9539L50.2432 30.3565C47.9788 32.7711 45.1212 34.3971 42.0709 34.9107C41.6833 34.9759 41.2959 35.0159 40.9114 35.0436L52.0353 40.8454C58.9375 39.1271 63.361 33.4795 61.9925 27.9539Z" fill="#C0F2DB"/>
</g>
<mask id="mask1" mask-type="alpha" maskUnits="userSpaceOnUse" x="4" y="22" width="25" height="16">
<path d="M4.44238 26.1875L26.2508 22.5156L28.5352 33.345L6.72675 37.0169L4.44238 26.1875Z" fill="white"/>
</mask>
<g mask="url(#mask1)">
<path fill-rule="evenodd" clip-rule="evenodd" d="M26.6544 30.0581L26.8475 30.9737L26.6544 30.0581C27.0419 29.9929 27.4287 29.954 27.8141 29.9261L16.6893 24.1245C9.78709 25.8428 5.36358 31.4903 6.73208 37.0159L18.4814 34.6133C20.7462 32.2005 23.6033 30.5727 26.6537 30.0592L26.6545 30.059L26.6544 30.0581Z" fill="#C0F2DB"/>
</g>
<mask id="mask2" mask-type="alpha" maskUnits="userSpaceOnUse" x="24" y="38" width="17" height="24">
<path d="M24.5452 40.1115L35.4602 38.2737L40.0215 59.8974L29.1065 61.7351L24.5452 40.1115Z" fill="white"/>
</mask>
<g mask="url(#mask2)">
<path fill-rule="evenodd" clip-rule="evenodd" d="M32.0041 38.8556L26.5434 49.5845C28.5512 56.4539 34.4576 61.03 40.0195 59.8922L37.1246 48.2002C35.4837 46.6933 34.149 44.9516 33.2422 43.0557C32.5715 41.6537 32.1615 40.2402 32.0041 38.8556Z" fill="#00DB94"/>
</g>
<mask id="mask3" mask-type="alpha" maskUnits="userSpaceOnUse" x="28" y="3" width="17" height="24">
<path d="M28.7036 5.07227L39.6181 3.23439L44.1789 24.8582L33.2645 26.6961L28.7036 5.07227Z" fill="white"/>
</mask>
<g mask="url(#mask3)">
<path fill-rule="evenodd" clip-rule="evenodd" d="M36.7198 26.1141L42.1809 15.385C40.1741 8.51545 34.2677 3.93942 28.7047 5.0775L31.5994 16.7696C33.2401 18.2755 34.5748 20.0172 35.4817 21.9139C36.1522 23.3151 36.5624 24.7294 36.7198 26.1141Z" fill="#00DB94"/>
</g>
<path fill-rule="evenodd" clip-rule="evenodd" d="M34.7062 33.8767C32.257 38.6896 35.0539 45.1581 40.9786 48.8491C41.3737 49.0958 41.7816 49.3296 42.2039 49.5501C45.5656 51.3018 49.134 51.8593 52.1931 51.3443C55.2821 50.8242 57.8521 49.2114 59.1654 46.6321L34.7071 33.8766L34.7062 33.8767ZM34.0171 31.0928C36.6299 25.9599 33.2732 18.9428 26.5195 15.4203C23.1586 13.6677 19.5895 13.1111 16.5304 13.6262C13.4414 14.1463 10.8714 15.759 9.5588 18.3374L34.0171 31.0928ZM27.0405 31.8892L26.8474 30.9737L27.0405 31.8892ZM17.324 39.5625C14.0043 46.0857 15.621 53.6205 20.9361 56.393L32.9608 32.7721C31.115 31.8089 29.0668 31.5471 27.0396 31.8893C23.2283 32.531 19.4907 35.3046 17.324 39.5625ZM47.7873 8.57748L35.7627 32.1983C37.6091 33.1605 39.6564 33.4225 41.6838 33.0811C45.4961 32.4393 49.2315 29.6643 51.4002 25.4069C54.7199 18.8837 53.1031 11.349 47.7873 8.57748Z" fill="#004752"/>
<path fill-rule="evenodd" clip-rule="evenodd" d="M32.9328 32.5347L17.1515 53.8296C12.3699 50.215 12.0272 42.5159 16.3852 36.6348C19.2301 32.796 23.3755 30.6818 27.2405 30.6819C29.2965 30.681 31.2726 31.2785 32.9328 32.5347ZM41.4834 34.2888C39.4275 34.2887 37.4521 33.6904 35.7911 32.435L51.5724 11.1401C56.3531 14.7556 56.6967 22.4539 52.3387 28.3349C49.4938 32.1737 45.3493 34.288 41.4834 34.2879L41.4834 34.2888ZM12.2527 14.4161C13.9753 12.0908 16.7792 10.9264 19.9108 10.9265C23.0139 10.9265 26.4401 12.0689 29.4623 14.3543C35.5381 18.95 37.6825 26.4266 34.2533 31.0542L12.2536 14.4161L12.2527 14.4161ZM56.4712 50.5527C54.7486 52.8772 51.9455 54.0425 48.813 54.0424C45.7109 54.0423 42.2846 52.9 39.2615 50.6128C38.8808 50.3261 38.5174 50.027 38.1688 49.7198C32.9394 45.0956 31.2559 38.2529 34.4705 33.9138L56.4703 50.5527L56.4712 50.5527ZM41.5601 36.1566C44.6542 36.1566 47.7413 35.0279 50.3753 33.023C51.663 32.0438 52.8441 30.8571 53.8608 29.4852C58.8141 22.8011 58.2764 13.9108 52.6642 9.66584L51.1412 8.51556L50.0494 9.98804L44.912 16.9223L37.7428 26.594C37.8194 25.2025 37.6489 23.7407 37.2204 22.2468C36.6402 20.2258 35.6143 18.2877 34.2463 16.5293C33.2049 15.1912 31.9706 13.9546 30.5542 12.8827C27.2929 10.4165 23.4853 9.05875 19.8333 9.05865C15.9736 9.05854 12.7411 10.5523 10.7305 13.265L9.63872 14.7383L11.16 15.8895L18.3236 21.3061L28.3284 28.8737C27.9446 28.8372 27.5568 28.8114 27.1638 28.8114L27.2405 30.681L27.1638 28.8114L27.1629 28.8114C24.0696 28.8113 20.9817 29.9419 18.3485 31.9449C17.0609 32.926 15.8798 34.1118 14.8622 35.4837C9.90976 42.1677 10.4466 51.0589 16.0588 55.3039L17.5809 56.4542L18.6728 54.9817L23.8111 48.0484L30.9784 38.3757C30.9036 39.7672 31.0733 41.2299 31.5017 42.7229C32.081 44.7439 33.1079 46.6829 34.4758 48.4404C35.5173 49.7785 36.7515 51.016 38.1688 52.0871C41.4292 54.5532 45.2368 55.9119 48.8889 55.912C52.7486 55.9121 55.981 54.4174 57.9925 51.7048L59.0843 50.2314L57.5622 49.0802L50.3994 43.6636L40.3928 36.096C40.7775 36.1325 41.1662 36.1583 41.5593 36.1583L41.5601 36.1566Z" fill="white"/>
</svg>
