<svg width="1440" height="491" viewBox="0 0 1440 491" fill="none" xmlns="http://www.w3.org/2000/svg">
<g opacity="0.2">
<path d="M682 430.281L684.784 429.906C691.334 478.425 713.161 522.429 747.877 557.146C801.66 610.929 878.205 633.364 952.621 617.128L953.229 619.889C877.878 636.335 800.373 613.619 745.912 559.158C710.728 523.973 688.644 479.408 682 430.281Z" fill="#016746"/>
<path d="M745.889 240.813C833.639 153.062 976.436 153.062 1064.19 240.813C1151.94 328.564 1151.94 471.36 1064.19 559.111L1062.2 557.123C1148.85 470.471 1148.85 329.453 1062.2 242.802C975.547 156.15 834.528 156.15 747.877 242.802C721.699 268.979 702.329 301.474 691.919 336.752L689.229 335.956C699.779 300.234 719.36 267.342 745.889 240.813Z" fill="#016746"/>
<path d="M857.852 202.143C927.144 185.674 998.543 205.886 1048.84 256.183L1044.86 260.16C995.969 211.267 926.536 191.616 859.162 207.617L857.852 202.143Z" fill="#016746"/>
<path d="M761.258 256.183C777.026 240.416 795.039 227.455 814.854 217.653L817.357 222.706C798.104 232.228 780.582 244.837 765.259 260.16C693.229 332.19 687.404 445.931 751.69 524.746L747.339 528.302C681.181 447.265 687.17 330.272 761.258 256.183Z" fill="#016746"/>
<path d="M789.357 560.351C826.998 587.581 873.388 600.635 919.989 597.126C967.081 593.57 1011.41 573.217 1044.84 539.787C1071.82 512.814 1090.32 478.916 1098.3 441.767C1107.61 398.488 1102.09 352.823 1082.74 313.194L1087.79 310.714C1107.7 351.466 1113.39 398.418 1103.8 442.936C1095.58 481.139 1076.56 515.996 1048.8 543.741C1014.41 578.13 968.812 599.068 920.363 602.717C872.452 606.32 824.729 592.892 786.012 564.889L789.357 560.351Z" fill="#016746"/>
<path d="M801.195 296.116C858.463 238.848 951.641 238.848 1008.91 296.116C1032.09 319.3 1046.55 348.683 1050.71 381.107L1045.12 381.832C1041.1 350.648 1027.2 322.411 1004.91 300.117C949.84 245.047 860.241 245.047 805.172 300.117C795.393 309.895 787.158 320.961 780.655 333.009L775.695 330.342C782.456 317.779 791.018 306.293 801.195 296.116Z" fill="#016746"/>
<path d="M758.312 393.529L763.95 393.763C762.219 433.252 777.261 471.899 805.17 499.831C824.844 519.506 849.572 532.817 876.709 538.338L875.586 543.859C847.373 538.104 821.639 524.255 801.193 503.808C772.138 474.777 756.511 434.586 758.312 393.529Z" fill="#016746"/>
<path d="M921.084 540.302C953.087 536.652 982.072 522.663 1004.9 499.854C1024.91 479.852 1038.33 454.633 1043.69 426.958L1049.21 428.034C1043.64 456.809 1029.7 483.033 1008.88 503.831C985.137 527.576 955.005 542.103 921.716 545.893L921.084 540.302Z" fill="#016746"/>
<path d="M819.019 313.966C833.009 299.977 850.321 289.52 869.083 283.741L869.901 286.432C851.56 292.093 834.647 302.293 820.985 315.955C783.273 353.666 775.32 412.338 801.638 458.634L799.181 460.015C772.278 412.618 780.419 352.566 819.019 313.966Z" fill="#016746"/>
<path d="M905.014 278.337C937.508 278.337 968.06 290.993 991.057 313.966C1038.48 361.385 1038.48 438.562 991.057 485.982C943.637 533.401 866.461 533.401 819.041 485.982L821.029 483.993C867.35 530.313 942.748 530.313 989.068 483.993C1035.39 437.673 1035.39 362.274 989.068 315.954C966.61 293.496 936.783 281.144 905.037 281.144V278.337H905.014Z" fill="#016746"/>
<path d="M851.536 346.483C881.036 316.983 929.04 316.983 958.54 346.483C988.04 375.983 988.04 423.987 958.54 453.487L954.563 449.51C981.864 422.209 981.864 377.784 954.563 350.46C927.262 323.159 882.837 323.159 855.536 350.46C828.236 377.761 828.236 422.186 855.536 449.487L851.559 453.464C822.036 423.964 822.036 375.983 851.536 346.483Z" fill="#016746"/>
<path d="M878.44 373.387C893.109 358.719 916.97 358.719 931.615 373.387L929.626 375.375C916.058 361.807 893.997 361.807 880.429 375.375C866.86 388.944 866.86 411.004 880.429 424.573C893.997 438.141 916.058 438.141 929.626 424.573C937.159 417.04 940.785 406.653 939.592 396.055L942.4 395.728C943.686 407.168 939.756 418.42 931.615 426.561C916.947 441.229 893.085 441.229 878.44 426.561C863.796 411.893 863.796 388.055 878.44 373.387Z" fill="#016746"/>
</g>
<g opacity="0.2">
<path d="M1076 184.281L1078.78 183.906C1085.33 232.425 1107.16 276.429 1141.88 311.146C1195.66 364.929 1272.21 387.364 1346.62 371.128L1347.23 373.889C1271.88 390.335 1194.37 367.619 1139.91 313.158C1104.73 277.973 1082.64 233.408 1076 184.281Z" fill="#016746"/>
<path d="M1139.89 -5.18697C1227.64 -92.9377 1370.44 -92.9377 1458.19 -5.18697C1545.94 82.5638 1545.94 225.36 1458.19 313.111L1456.2 311.123C1542.85 224.471 1542.85 83.4527 1456.2 -3.19846C1369.55 -89.8497 1228.53 -89.8497 1141.88 -3.19846C1115.7 22.9794 1096.33 55.4735 1085.92 90.7516L1083.23 89.9562C1093.78 54.2336 1113.36 21.3418 1139.89 -5.18697Z" fill="#016746"/>
<path d="M1251.85 -43.8567C1321.14 -60.326 1392.54 -40.1137 1442.84 10.1833L1438.86 14.1603C1389.97 -34.7331 1320.54 -54.384 1253.16 -38.3825L1251.85 -43.8567Z" fill="#016746"/>
<path d="M1155.26 10.1832C1171.03 -5.58436 1189.04 -18.5446 1208.85 -28.3467L1211.36 -23.2936C1192.1 -13.7723 1174.58 -1.16295 1159.26 14.1601C1087.23 86.1901 1081.4 199.931 1145.69 278.746L1141.34 282.302C1075.18 201.265 1081.17 84.2718 1155.26 10.1832Z" fill="#016746"/>
<path d="M1183.36 314.351C1221 341.581 1267.39 354.635 1313.99 351.126C1361.08 347.57 1405.41 327.217 1438.84 293.787C1465.82 266.814 1484.32 232.916 1492.3 195.767C1501.61 152.488 1496.09 106.823 1476.74 67.1936L1481.79 64.7139C1501.7 105.466 1507.39 152.418 1497.8 196.936C1489.58 235.139 1470.56 269.996 1442.8 297.741C1408.41 332.13 1362.81 353.068 1314.36 356.717C1266.45 360.32 1218.73 346.892 1180.01 318.889L1183.36 314.351Z" fill="#016746"/>
<path d="M1195.19 50.1163C1252.46 -7.15206 1345.64 -7.15206 1402.91 50.1163C1426.09 73.2997 1440.55 102.683 1444.71 135.107L1439.12 135.832C1435.1 104.648 1421.2 76.4112 1398.91 54.1168C1343.84 -0.952612 1254.24 -0.952612 1199.17 54.1168C1189.39 63.8954 1181.16 74.9608 1174.65 87.0086L1169.7 84.3417C1176.46 71.7792 1185.02 60.2927 1195.19 50.1163Z" fill="#016746"/>
<path d="M1152.31 147.529L1157.95 147.763C1156.22 187.252 1171.26 225.899 1199.17 253.831C1218.84 273.506 1243.57 286.817 1270.71 292.338L1269.59 297.859C1241.37 292.104 1215.64 278.255 1195.19 257.808C1166.14 228.777 1150.51 188.586 1152.31 147.529Z" fill="#016746"/>
<path d="M1315.08 294.302C1347.09 290.652 1376.07 276.663 1398.9 253.854C1418.91 233.852 1432.33 208.633 1437.69 180.958L1443.21 182.034C1437.64 210.809 1423.7 237.033 1402.88 257.831C1379.14 281.576 1349.01 296.103 1315.72 299.893L1315.08 294.302Z" fill="#016746"/>
<path d="M1213.02 67.9662C1227.01 53.9766 1244.32 43.5195 1263.08 37.7412L1263.9 40.4315C1245.56 46.0928 1228.65 56.2926 1214.98 69.9547C1177.27 107.666 1169.32 166.338 1195.64 212.634L1193.18 214.015C1166.28 166.618 1174.42 106.566 1213.02 67.9662Z" fill="#016746"/>
<path d="M1299.01 32.3369C1331.51 32.3369 1362.06 44.993 1385.06 67.9659C1432.48 115.385 1432.48 192.562 1385.06 239.982C1337.64 287.401 1260.46 287.401 1213.04 239.982L1215.03 237.993C1261.35 284.313 1336.75 284.313 1383.07 237.993C1429.39 191.673 1429.39 116.274 1383.07 69.9544C1360.61 47.4962 1330.78 35.1441 1299.04 35.1441V32.3369H1299.01Z" fill="#016746"/>
<path d="M1245.54 100.483C1275.04 70.9835 1323.04 70.9835 1352.54 100.483C1382.04 129.983 1382.04 177.987 1352.54 207.487L1348.56 203.51C1375.86 176.209 1375.86 131.784 1348.56 104.46C1321.26 77.1594 1276.84 77.1594 1249.54 104.46C1222.24 131.761 1222.24 176.186 1249.54 203.487L1245.56 207.464C1216.04 177.964 1216.04 129.983 1245.54 100.483Z" fill="#016746"/>
<path d="M1272.44 127.387C1287.11 112.719 1310.97 112.719 1325.61 127.387L1323.63 129.375C1310.06 115.807 1288 115.807 1274.43 129.375C1260.86 142.944 1260.86 165.004 1274.43 178.573C1288 192.141 1310.06 192.141 1323.63 178.573C1331.16 171.04 1334.79 160.653 1333.59 150.055L1336.4 149.728C1337.69 161.168 1333.76 172.42 1325.61 180.561C1310.95 195.229 1287.09 195.229 1272.44 180.561C1257.8 165.893 1257.8 142.055 1272.44 127.387Z" fill="#016746"/>
</g>
</svg>
