<svg xmlns="http://www.w3.org/2000/svg" viewBox="0 0 607.92 113.67"><defs><style>.cls-1{fill:#00db94;}.cls-2{fill:#004752;}</style></defs><g id="Layer_2" data-name="Layer 2"><g id="Layer_1-2" data-name="Layer 1"><path class="cls-1" d="M108.2,101.43c-9.12,11.67-28.54,11.74-43.37.15S45.37,71.14,54.49,59.47Z"/><path class="cls-1" d="M.53,10.29C9.65-1.38,29.07-1.45,43.9,10.14S63.36,40.58,54.24,52.25Z"/><path class="cls-1" d="M8.8,109.69c-11.67-9.12-11.74-28.53-.15-43.36S39.09,46.87,50.76,56Z"/><path class="cls-1" d="M99.93,2c11.67,9.12,11.74,28.53.16,43.36S69.64,64.85,58,55.73Z"/><path class="cls-2" d="M219.38,56.84c0-19.81-8.68-35.05-26.36-35.05-17.52,0-26.51,15.24-26.51,35.05s9,34.89,26.51,34.89c17.68,0,26.36-15.08,26.36-34.89m-80.3,0C139.08,24.23,160,0,192.87,0s53.94,24.23,53.94,56.84-20.88,56.83-53.94,56.83-53.79-24.23-53.79-56.83"/><path class="cls-2" d="M251.07,85.79h23.47c.91,7.77,6.09,11.58,14.32,11.58,7.47,0,12.19-2.74,12.19-7.77,0-7-9.45-7.77-19.81-9.6-13.56-2.29-28-5.94-28-24.23,0-16.46,15.24-25,33.68-25,22.09,0,34,9.6,35.2,25H299.22c-.91-7-5.64-9.14-12.49-9.14-6.1,0-10.82,2.28-10.82,7.16,0,5.48,8.84,6.25,18.74,8.07,13.71,2.29,29.87,5.8,29.87,25.76,0,17.06-15.09,25.9-35.51,25.9-22.85,0-37.18-10.51-37.94-27.73"/><path class="cls-2" d="M380,83.2V73.9c-3.2,1.68-7.77,2.9-12.8,4.12-9.6,2.13-13.56,4.57-13.56,10.51,0,6.25,4.57,8.69,10.66,8.69,9.3,0,15.7-5.64,15.7-14m-50.29,6.09c0-17.22,13.72-22.4,29.87-24.53,14.63-1.83,19.81-3.35,19.81-8.69,0-5-3.2-8.38-10.67-8.38-7.92,0-11.88,3.51-12.65,10.06H333.2c.61-14.48,11.73-26.82,35.35-26.82,11.73,0,19.65,2.14,25.29,6.4,6.71,4.88,9.91,12.5,9.91,22.25V98.89c0,6.25.61,9.75,2.74,11.13v1.06H382.41c-1.21-1.67-2-4.72-2.59-8.68h-.3c-4.57,6.55-11.43,10.66-23.16,10.66-15.54,0-26.67-8.38-26.67-23.77"/><path class="cls-2" d="M427.67,98.28C418.22,87.92,413,73.6,413,57c0-17.07,5.79-32.15,16.15-42.51C438.18,5.33,450.83,0,466.52,0c28,0,44.8,14.93,48.31,37.79H488.62c-2-8.84-9.3-15.54-21.18-15.54-18,0-27,14.93-27,34.74s10.36,34.74,27.42,34.74c14.17,0,22.56-9.45,23.62-19v-.3H471.09V52.57H516.5v58.51H497.61L496.08,98h-.3c-7.16,11.12-17.83,15.54-30.93,15.54-15.55,0-28.19-5.49-37.18-15.24"/><path class="cls-2" d="M582.78,72.23c0-14.18-5.79-23.77-16.61-23.77s-16.45,9.59-16.45,23.77,5.63,23.61,16.45,23.61,16.61-9.44,16.61-23.61m-58.2,0c0-23.47,16.76-41.3,41.75-41.3s41.59,17.83,41.59,41.3-16.45,41.29-41.59,41.29-41.75-17.83-41.75-41.29"/></g></g></svg>