<svg width="219" height="41" viewBox="0 0 219 41" fill="none" xmlns="http://www.w3.org/2000/svg">
<path d="M38.9783 36.5849C35.6929 40.7942 28.697 40.8194 23.3545 36.639C18.0121 32.4586 16.3442 25.6595 19.6296 21.4502L38.9783 36.5849Z" fill="#00DB94"/>
<path d="M0.190674 3.71184C3.47611 -0.497447 10.4721 -0.522695 15.8145 3.65774C21.1569 7.83817 22.8249 14.6372 19.5394 18.8465L0.190674 3.71184Z" fill="#00DB94"/>
<path d="M3.17006 39.5649C-1.034 36.2753 -1.05922 29.2743 3.11602 23.9252C7.29126 18.5761 14.0819 16.9061 18.2859 20.1992L3.17006 39.5649Z" fill="#00DB94"/>
<path d="M35.9991 0.72168C40.2032 4.0112 40.2284 11.0123 36.0567 16.3613C31.8851 21.7104 25.0873 23.3912 20.894 20.1017L35.9991 0.72168Z" fill="#00DB94"/>
<path d="M79.0304 20.5018C79.0304 13.3565 75.9035 7.85951 69.5344 7.85951C63.2229 7.85951 59.9843 13.3565 59.9843 20.5018C59.9843 27.6471 63.2265 33.0864 69.5344 33.0864C75.9035 33.0864 79.0304 27.6471 79.0304 20.5018ZM50.1028 20.5018C50.1028 8.7396 57.6391 0 69.4803 0C81.3216 0 88.9119 8.7396 88.9119 20.5018C88.9119 32.264 81.39 41 69.4803 41C57.5707 41 50.1028 32.2604 50.1028 20.5018Z" fill="#004752"/>
<path d="M90.4468 30.9435H98.9017C99.2296 33.7461 101.096 35.1203 104.06 35.1203C106.751 35.1203 108.452 34.132 108.452 32.3177C108.452 29.7929 105.048 29.5151 101.315 28.8551C96.4304 28.0291 91.2285 26.7126 91.2285 20.1155C91.2285 14.1785 96.7186 11.0981 103.362 11.0981C111.319 11.0981 115.61 14.5608 116.042 20.1155H107.793C107.465 17.5906 105.761 16.8187 103.293 16.8187C101.096 16.8187 99.3953 17.6411 99.3953 19.4013C99.3953 21.3779 102.58 21.6556 106.146 22.3121C111.085 23.1381 116.907 24.4041 116.907 31.6036C116.907 37.757 111.471 40.9455 104.114 40.9455C95.8829 40.9455 90.7206 37.1546 90.4468 30.9435Z" fill="#004752"/>
<path d="M136.893 30.0098V26.6553C135.74 27.2613 134.094 27.7014 132.282 28.1414C128.823 28.9097 127.397 29.7898 127.397 31.9323C127.397 34.1866 129.043 35.0667 131.237 35.0667C134.587 35.0667 136.893 33.0324 136.893 30.017V30.0098ZM118.776 32.2136C118.776 26.0025 123.719 24.1341 129.537 23.3658C134.807 22.7058 136.673 22.1575 136.673 20.2314C136.673 18.4279 135.52 17.2088 132.829 17.2088C129.976 17.2088 128.549 18.4748 128.272 20.8374H120.033C120.253 15.6145 124.259 11.1636 132.768 11.1636C136.994 11.1636 139.847 11.9355 141.878 13.472C144.296 15.2322 145.449 17.9807 145.449 21.4974V35.6691C145.449 37.9234 145.668 39.1858 146.436 39.6836V40.0659H137.761C137.325 39.4636 137.04 38.3635 136.828 36.9351H136.72C135.073 39.2976 132.602 40.7801 128.377 40.7801C122.778 40.7801 118.769 37.7575 118.769 32.2064" fill="#004752"/>
<path d="M154.066 35.4489C150.661 31.7122 148.781 26.547 148.781 20.5595C148.781 14.4025 150.867 8.96323 154.599 5.22645C157.852 1.9225 162.409 0 168.061 0C178.148 0 184.2 5.38515 185.465 13.6306H176.023C175.302 10.4421 172.672 8.02543 168.393 8.02543C161.908 8.02543 158.666 13.4106 158.666 20.5559C158.666 27.7012 162.398 33.0864 168.544 33.0864C173.649 33.0864 176.671 29.6778 177.053 26.2332V26.125H169.708V18.9616H186.066V40.0658H179.261L178.71 35.3479H178.602C176.023 39.3589 172.179 40.9531 167.46 40.9531C161.858 40.9531 157.304 38.9729 154.066 35.4562" fill="#004752"/>
<path d="M209.943 26.0529C209.943 20.9383 207.857 17.4792 203.959 17.4792C200.062 17.4792 198.033 20.9383 198.033 26.0529C198.033 31.1675 200.062 34.5689 203.959 34.5689C207.857 34.5689 209.943 31.1639 209.943 26.0529ZM188.977 26.0529C188.977 17.5874 195.015 11.1562 204.017 11.1562C213.02 11.1562 219 17.5874 219 26.0529C219 34.5184 213.074 40.9459 204.017 40.9459C194.96 40.9459 188.977 34.5147 188.977 26.0529Z" fill="#004752"/>
</svg>
