<svg width="59" height="57" viewBox="0 0 59 57" fill="none" xmlns="http://www.w3.org/2000/svg">
<path fill-rule="evenodd" clip-rule="evenodd" d="M30.4032 40.7321C31.3826 40.6375 32.1692 40.3909 32.7649 39.9912L30.2834 37.8398L30.4021 40.7321L30.4032 40.7321Z" fill="#004752"/>
<path fill-rule="evenodd" clip-rule="evenodd" d="M30.5344 43.943L30.6343 46.3796L28.7187 46.3796L28.6175 43.9137C26.0137 43.7802 23.9758 43.1535 22.5049 42.0356C21.0329 40.9177 20.2259 39.3944 20.0815 37.4627L24.3551 36.3906L24.4251 37.4627C24.6143 38.4763 25.0355 39.2462 25.6843 39.7706C26.3343 40.2969 27.2678 40.6166 28.487 40.7316L28.2979 36.1187L27.0453 35.0329C26.5657 34.9296 26.1405 34.8302 25.7819 34.7386C25.1786 34.5856 24.5048 34.3517 23.756 34.0368C23.0105 33.722 22.4211 33.377 21.9901 33.0037C21.5603 32.6314 21.1893 32.1344 20.8762 31.5135C20.5632 30.8927 20.3911 30.19 20.3589 29.4054C20.3566 29.3489 20.3599 29.2963 20.3597 29.2397L9.65545 19.9632C6.28579 23.8091 4.36703 28.7349 4.58739 34.108C5.09158 46.402 16.6002 56.3685 30.2907 56.3685C36.2667 56.3685 41.672 54.47 45.8229 51.3073L35.6655 42.5044C34.3315 43.3757 32.6223 43.8572 30.5333 43.943L30.5344 43.943ZM27.7804 23.5284L27.711 21.8364L29.6267 21.8364L29.6972 23.5567C31.876 23.7282 33.6191 24.3364 34.9284 25.3773C36.2377 26.4201 37.0046 27.8382 37.227 29.6354L32.9812 29.6354C32.702 28.0682 31.6516 27.1219 29.8301 26.7973L29.8797 28.0058L50.7577 46.0891C53.0818 42.6292 54.3492 38.5211 54.1682 34.108C53.7655 24.2886 46.341 15.9604 36.393 13.0034L20.6316 13.0034C18.7171 13.5862 16.9185 14.3776 15.2685 15.3503L25.132 23.8939C25.9334 23.6931 26.8129 23.5684 27.7815 23.5284L27.7804 23.5284ZM40.6885 0.425782L15.3055 0.425781L21.4721 9.44208L35.2614 9.44208L40.6885 0.425782Z" fill="#004752"/>
<path fill-rule="evenodd" clip-rule="evenodd" d="M32.9804 29.6354L37.2274 29.6354C37.0049 27.8381 36.238 26.4191 34.9287 25.3772C33.6194 24.3363 31.8764 23.7291 29.6986 23.5565L29.628 21.8363L27.7113 21.8363L27.7807 23.5283C26.812 23.5682 25.9315 23.694 25.1322 23.8938L29.8811 28.0068L29.8315 26.7962C31.653 27.1218 32.7034 28.0682 32.9804 29.6354Z" fill="white"/>
<path fill-rule="evenodd" clip-rule="evenodd" d="M36.3946 13.004L36.5683 13.004L36.4222 9.44202L35.2619 9.44202L21.4725 9.44202L20.3101 9.44202L20.4562 13.004L20.6309 13.004L36.3946 13.004Z" fill="#00DB94"/>
<path fill-rule="evenodd" clip-rule="evenodd" d="M30.4033 40.7316L30.2847 37.8398L32.765 39.9908C32.1682 40.3904 31.3827 40.637 30.4022 40.7316L30.4033 40.7316ZM10.4252 17.5247L8.72179 19.1523L9.65589 19.9632L20.3602 29.2397C20.3604 29.2962 20.3571 29.3489 20.3594 29.4054C20.3916 30.19 20.5637 30.8927 20.8768 31.5135C21.1899 32.1344 21.5608 32.6314 21.9907 33.0047C22.4217 33.377 23.0111 33.722 23.7577 34.0368C24.5054 34.3516 25.1803 34.5855 25.7824 34.7386C26.1411 34.8302 26.5663 34.9296 27.0459 35.0329L28.2984 36.1186L28.4877 40.7316C27.2673 40.6166 26.3349 40.2969 25.6849 39.7706C25.0361 39.2452 24.6149 38.4763 24.4257 37.4627L24.3557 36.3906L20.0821 37.4627C20.2265 39.3944 21.0335 40.9177 22.5055 42.0356C23.9765 43.1545 26.0144 43.7802 28.6171 43.9147L28.7183 46.3805L30.6339 46.3805L30.5339 43.943C32.623 43.8572 34.3311 43.3757 35.6661 42.5044L45.8236 51.3073L48.7461 53.8403L50.4621 52.2L10.4252 17.5247Z" fill="white"/>
<path fill-rule="evenodd" clip-rule="evenodd" d="M58.8165 53.0671L50.7591 46.0878L29.88 28.0056L25.1312 23.8927L15.2677 15.3491L4.56732 6.14087L1.02767 9.44095L10.425 17.5225L50.4617 52.1987L55.2768 56.3682L58.8165 53.0671Z" fill="#7BDBAF"/>
</svg>
