<svg width="122" height="122" viewBox="0 0 122 122" fill="none" xmlns="http://www.w3.org/2000/svg">
<g clip-path="url(#clip0)">
<path d="M60.7741 0.00488281C37.2 0.00488281 18.0425 19.1629 18.0425 42.7365C18.0425 50.7131 20.2508 58.4762 24.4525 65.1709L57.8774 119.871C58.4476 120.797 59.3022 121.367 60.2995 121.509C61.6522 121.722 63.1486 121.153 63.9317 119.8L97.4523 64.6009C101.44 58.0489 103.506 50.4284 103.506 42.7365C103.506 19.1629 84.3482 0.00488281 60.7741 0.00488281ZM60.7741 64.1023C48.8097 64.1023 39.4083 54.4165 39.4083 42.7365C39.4083 30.9851 49.0227 21.3707 60.7741 21.3707C72.5255 21.3707 82.1399 30.9851 82.1399 42.7365C82.1399 54.3453 72.8812 64.1023 60.7741 64.1023Z" fill="#FD003A"/>
<path d="M60.7739 0.00488281V21.3707C72.5254 21.3707 82.1397 30.9851 82.1397 42.7365C82.1397 54.3453 72.881 64.1023 60.7739 64.1023V121.55C61.9892 121.579 63.2388 120.996 63.9313 119.8L97.4519 64.6009C101.44 58.0489 103.506 50.4284 103.506 42.7365C103.506 19.1629 84.348 0.00488281 60.7739 0.00488281Z" fill="#E50027"/>
</g>
<defs>
<clipPath id="clip0">
<rect width="121.548" height="121.548" fill="white" transform="translate(0 0.00488281)"/>
</clipPath>
</defs>
</svg>
