<svg width="73" height="72" viewBox="0 0 73 72" fill="none" xmlns="http://www.w3.org/2000/svg">
<path fill-rule="evenodd" clip-rule="evenodd" d="M30.67 47.892L20.746 37.968L23.716 34.998L30.67 41.953L47.352 25.273L50.322 28.243L30.67 47.893V47.892ZM36.355 13.935C24.279 13.935 14.49 23.724 14.489 35.799C14.489 47.875 24.278 57.664 36.353 57.664C48.428 57.665 58.218 47.876 58.219 35.801C58.219 23.726 48.431 13.935 36.355 13.935Z" fill="#004752"/>
<path fill-rule="evenodd" clip-rule="evenodd" d="M70.7081 37.4559L65.0531 27.6639L59.4001 37.4549L62.8971 37.4559C62.5021 43.9379 59.7941 49.9779 55.1621 54.6089C50.1381 59.6339 43.4581 62.3999 36.3521 62.3989C26.2221 62.3989 16.8201 56.5039 12.4001 47.3809L8.62012 49.2119C13.7381 59.7749 24.6241 66.5999 36.3541 66.5999H36.3551C44.5811 66.5999 52.3151 63.3969 58.1331 57.5799C63.5591 52.1549 66.7081 45.0599 67.1091 37.4559H70.7091H70.7081Z" fill="#00DB94"/>
<path fill-rule="evenodd" clip-rule="evenodd" d="M9.81 34.144C10.206 27.662 12.913 21.621 17.545 16.99C22.57 11.966 29.25 9.2 36.355 9.2C46.486 9.2 55.888 15.095 60.308 24.218L64.088 22.388C58.97 11.825 48.085 5 36.355 5H36.354C28.127 5 20.393 8.203 14.576 14.02C9.15 19.446 6 26.54 5.6 34.144H2L7.654 43.936L13.308 34.144H9.81Z" fill="#C0F2DB"/>
<path fill-rule="evenodd" clip-rule="evenodd" d="M30.6701 41.953L23.7161 34.998L20.7461 37.968L30.6701 47.892L50.3211 28.243L47.3521 25.272L30.6701 41.953Z" fill="white"/>
</svg>
