<svg width="18" height="18" viewBox="0 0 18 18" fill="none" xmlns="http://www.w3.org/2000/svg">
<path d="M17.0864 16.0174C15.6462 17.8603 12.5795 17.8714 10.2376 16.0411C7.89573 14.2109 7.16458 11.2342 8.60477 9.3913L17.0864 16.0174Z" fill="#00DB94"/>
<path d="M0.0834961 1.62495C1.52369 -0.217925 4.59041 -0.228979 6.93229 1.60126C9.27418 3.4315 10.0053 6.40821 8.56514 8.25108L0.0834961 1.62495Z" fill="#00DB94"/>
<path d="M1.38954 17.3218C-0.453337 15.8816 -0.464392 12.8164 1.36585 10.4745C3.19609 8.13266 6.1728 7.40151 8.01567 8.84328L1.38954 17.3218Z" fill="#00DB94"/>
<path d="M15.7803 0.315857C17.6232 1.75605 17.6343 4.82119 15.8056 7.16307C13.9769 9.50496 10.9971 10.2408 9.15894 8.80066L15.7803 0.315857Z" fill="#00DB94"/>
</svg>
