<svg width="43" height="44" viewBox="0 0 43 44" fill="none" xmlns="http://www.w3.org/2000/svg">
<path fill-rule="evenodd" clip-rule="evenodd" d="M5.06532 36.2419H23.3882L22.0393 3.34466H3.71642L5.06538 36.2435L5.06532 36.2419ZM14.4513 41.6996C13.4122 41.6996 12.5346 40.858 12.492 39.819C12.4494 38.7808 13.258 37.9384 14.2971 37.9384C15.3354 37.9384 16.2139 38.7808 16.2564 39.819C16.299 40.858 15.4904 41.6996 14.4513 41.6996ZM22.3356 0.820557H3.21315C1.88626 0.820557 0.853915 1.8961 0.908277 3.22187L2.47347 41.3942C2.52783 42.72 3.64838 43.7956 4.97527 43.7956H24.0985C25.4254 43.7956 26.4577 42.72 26.4034 41.3942L24.8382 3.22187C24.7838 1.8961 23.6633 0.820557 22.3364 0.820557H22.3356Z" fill="#004752"/>
<path fill-rule="evenodd" clip-rule="evenodd" d="M5.06527 36.2427H23.3882L22.0392 3.34387H3.71631L5.06527 36.2427Z" fill="#C0F2DB"/>
<path fill-rule="evenodd" clip-rule="evenodd" d="M14.2965 37.9392C13.2582 37.9392 12.4495 38.7808 12.4922 39.8199C12.5347 40.8581 13.4124 41.7005 14.4515 41.7005C15.4898 41.7005 16.2992 40.8581 16.2566 39.8199C16.214 38.7808 15.3364 37.9392 14.2973 37.9392" fill="white"/>
<path fill-rule="evenodd" clip-rule="evenodd" d="M37.125 10.2098L35.2662 12.148C37.5368 14.9806 38.846 18.4178 38.9944 22.0361C39.1428 25.6552 38.1147 29.0924 36.0772 31.925L38.0948 33.8624C40.6164 30.5052 41.8948 26.3826 41.7166 22.0361C41.5384 17.6897 39.9219 13.5678 37.125 10.2098Z" fill="#00DB94"/>
<path fill-rule="evenodd" clip-rule="evenodd" d="M33.3933 14.0986L31.5158 16.0546C34.031 19.6744 34.2247 24.3978 32.0063 28.0176L34.0442 29.9744C37.2336 25.2441 36.9705 18.8281 33.3932 14.0978L33.3933 14.0986ZM27.5005 20.2378C27.7292 20.8075 27.8676 21.4121 27.8932 22.0361C27.9187 22.6594 27.83 23.264 27.648 23.8344L29.7855 25.8875C30.3801 24.7195 30.6715 23.4046 30.6154 22.0361C30.5593 20.6676 30.16 19.3527 29.4697 18.1855L27.5005 20.2378Z" fill="#00DB94"/>
</svg>
