<svg width="50" height="58" viewBox="0 0 50 58" fill="none" xmlns="http://www.w3.org/2000/svg">
<mask id="mask0" mask-type="alpha" maskUnits="userSpaceOnUse" x="0" y="13" width="50" height="45">
<path d="M0.96582 13.3151H49.3571V57.8111H0.96582V13.3151Z" fill="white"/>
</mask>
<g mask="url(#mask0)">
<path fill-rule="evenodd" clip-rule="evenodd" d="M32.0784 43.6011C30.6166 44.7551 28.696 45.3831 26.3146 45.4861V48.0911H24.3654V45.4551C21.7245 45.3111 19.6779 44.6421 18.2266 43.4471C16.7775 42.2511 16.019 40.6211 15.9544 38.5571H20.3718C20.5222 39.6411 20.9173 40.4631 21.5572 41.0251C22.1949 41.5871 23.1313 41.9291 24.3665 42.0521V36.2271C24.2786 36.2271 24.2246 36.2171 24.2034 36.1971C23.25 35.9931 22.4703 35.8081 21.8654 35.6451C21.2584 35.4811 20.5826 35.2311 19.8358 34.8941C19.0889 34.5571 18.5031 34.1891 18.0815 33.7901C17.6599 33.3921 17.3018 32.8601 17.0105 32.1961C16.7181 31.5331 16.5709 30.7811 16.5709 29.9431C16.5709 28.0231 17.2806 26.5201 18.6991 25.4361C20.1154 24.3531 22.0063 23.7601 24.3665 23.6581V21.8491H26.3146V23.6891C28.5233 23.8721 30.2712 24.5211 31.5583 25.6351C32.8475 26.7491 33.5668 28.2671 33.7183 30.1881H29.4004C29.1833 28.5121 28.1536 27.5011 26.3146 27.1531V32.4571C26.357 32.4771 26.4227 32.4871 26.5095 32.4871C27.7002 32.7121 28.7066 32.9571 29.5286 33.2231C30.3528 33.4891 31.1526 33.8571 31.9333 34.3261C32.7119 34.7961 33.2967 35.4111 33.6865 36.1661C34.0753 36.9221 34.2712 37.8211 34.2712 38.8641C34.2712 40.8671 33.5403 42.4461 32.0784 43.6011ZM32.8549 13.3151H17.4692C7.87909 16.3511 0.964844 24.8951 0.964844 34.9711C0.965903 47.5851 11.7997 57.8111 25.1631 57.8111C38.5255 57.8111 49.3582 47.5851 49.3582 34.9711C49.3582 24.8951 42.4461 16.3511 32.856 13.3151" fill="#FFDC4F"/>
</g>
<path fill-rule="evenodd" clip-rule="evenodd" d="M21.0859 29.4831C21.0859 30.1571 21.3402 30.6841 21.8486 31.0611C22.3571 31.4411 23.1972 31.7721 24.3656 32.0581V27.0611C23.3486 27.1631 22.5467 27.4241 21.963 27.8421C21.3772 28.2621 21.0859 28.8081 21.0859 29.4831ZM28.8964 37.6981C28.3434 37.3111 27.4832 36.9731 26.3148 36.6881V42.0521C27.3317 41.9501 28.1538 41.6791 28.783 41.2401C29.4101 40.8001 29.7237 40.1821 29.7237 39.3851C29.7237 38.6491 29.4483 38.0881 28.8964 37.6981ZM37.549 0.411133H12.7744L18.4323 9.66213H31.8911L37.549 0.411133Z" fill="#FFDC4F"/>
<path fill-rule="evenodd" clip-rule="evenodd" d="M28.7827 41.2391C28.1534 41.6791 27.3314 41.9501 26.3144 42.0521V36.6871C27.4829 36.9731 28.343 37.3111 28.896 37.6981C29.4469 38.0881 29.7244 38.6491 29.7244 39.3851C29.7244 40.1821 29.4109 40.8011 28.7816 41.2391H28.7827ZM24.3653 32.0591C23.1968 31.7721 22.3578 31.4401 21.8483 31.0611C21.3398 30.6841 21.0856 30.1571 21.0856 29.4831C21.0856 28.8081 21.3769 28.2611 21.9627 27.8431C22.5464 27.4231 23.3472 27.1631 24.3653 27.0611V32.0581V32.0591ZM31.9321 34.3261C31.1524 33.8561 30.3526 33.4891 29.5295 33.2231C28.7064 32.9581 27.7 32.7131 26.5104 32.4871C26.4225 32.4871 26.3579 32.4771 26.3134 32.4571V27.1531C28.1534 27.5011 29.1831 28.5131 29.4003 30.1881H33.7181C33.5666 28.2681 32.8463 26.7491 31.5581 25.6351C30.271 24.5211 28.5231 23.8721 26.3144 23.6881V21.8491H24.3653V23.6581C22.0051 23.7601 20.1152 24.3531 18.6978 25.4361C17.2794 26.5201 16.5707 28.0221 16.5707 29.9431C16.5707 30.7811 16.718 31.5331 17.0093 32.1961C17.3027 32.8601 17.6597 33.3921 18.0813 33.7901C18.504 34.1901 19.0887 34.5571 19.8356 34.8941C20.5813 35.2311 21.2582 35.4811 21.8652 35.6451C22.4701 35.8081 23.2509 35.9931 24.2032 36.1971C24.2244 36.2171 24.2795 36.2271 24.3653 36.2271V42.0521C23.1311 41.9291 22.1936 41.5871 21.557 41.0251C20.9171 40.4631 20.522 39.6411 20.3705 38.5571H15.9531C16.0188 40.6211 16.7773 42.2511 18.2275 43.4471C19.6777 44.6421 21.7233 45.3111 24.3653 45.4551V48.0911H26.3144V45.4861C28.6958 45.3831 30.6174 44.7551 32.0782 43.6011C33.5401 42.4461 34.2711 40.8671 34.2711 38.8641C34.2711 37.8211 34.0761 36.9221 33.6863 36.1661C33.2965 35.4111 32.7117 34.7961 31.9321 34.3261Z" fill="#004752"/>
<path fill-rule="evenodd" clip-rule="evenodd" d="M32.854 13.3151H33.0246V9.66213H31.8911H18.4323H17.2988V13.3151H17.4694H32.854Z" fill="white"/>
</svg>
