<svg width="74" height="63" viewBox="0 0 74 63" fill="none" xmlns="http://www.w3.org/2000/svg">
<path fill-rule="evenodd" clip-rule="evenodd" d="M31.142 43.3031L20.6292 33.3791L23.7754 30.4091L31.142 37.3641L48.8137 20.6841L51.9599 23.6541L31.142 43.3041V43.3031ZM37.1643 9.34613C24.3718 9.34613 14.002 19.1351 14.001 31.2101C14.001 43.2861 24.3708 53.0751 37.1622 53.0761C49.9536 53.0761 60.3244 43.2881 60.3255 31.2121C60.3255 19.1361 49.9568 9.34713 37.1643 9.34613Z" fill="white"/>
<path fill-rule="evenodd" clip-rule="evenodd" d="M67.5664 23.0751L61.577 32.8661H65.2825C64.8619 39.3491 61.9943 45.3901 57.0886 50.0211C51.7654 55.0451 44.6891 57.8111 37.1626 57.8111C26.4305 57.8111 16.4696 51.9151 11.7884 42.7931L7.78418 44.6231C13.2048 55.1851 24.7356 62.0101 37.1626 62.0111H37.1636C45.8787 62.0111 54.0705 58.8081 60.2337 52.9911C65.9817 47.5651 69.3185 40.4731 69.7423 32.8671H73.5559L67.5664 23.0751Z" fill="#FFDC4F"/>
<path fill-rule="evenodd" clip-rule="evenodd" d="M9.04485 29.5551C9.46435 23.0731 12.332 17.0321 17.2388 12.4011C22.5619 7.37713 29.6382 4.61113 37.1648 4.61113C47.8968 4.61113 57.8567 10.5061 62.5389 19.6291L66.5432 17.7991C61.1215 7.23613 49.5907 0.411133 37.1648 0.411133H37.1637C28.4486 0.411133 20.2557 3.61413 14.0936 9.43113C8.34569 14.8571 5.0088 21.9511 4.58507 29.5551H0.771484L6.76094 39.3471L12.7504 29.5551H9.04485Z" fill="#FFDC4F"/>
<path fill-rule="evenodd" clip-rule="evenodd" d="M31.1427 37.3641L23.7761 30.4091L20.6299 33.3801L31.1427 43.3031L51.9596 23.6541L48.8144 20.6841L31.1427 37.3641Z" fill="#004752"/>
</svg>
